<svg xmlns="http://www.w3.org/2000/svg" width="41" height="34" viewBox="0 0 41 34"><defs><clipPath id="db0ka"><path fill="#fff" d="M19.95 28.1v-4.2h2.1v4.2zm.887-3.33a.63.63 0 0 0-.637.621v1.325a.63.63 0 0 0 .637.62.63.63 0 0 0 .637-.62V25.39a.63.63 0 0 0-.637-.621z"/></clipPath><clipPath id="db0kb"><path fill="#fff" d="M-.1 35.096V-.096h41.2v35.192zm40.6-18.32c0-.342-.137-.664-.386-.907a1.324 1.324 0 0 0-.93-.376h-1.636c-.02 0-.035-.022-.039-.043a13.074 13.074 0 0 0-2.915-5.86 13.605 13.605 0 0 0-5.225-3.713c-.324-1.335-1.01-2.713-2.36-3.748-1.31-1.002-2.627-1.195-2.682-1.203a.649.649 0 0 0-.507.146.614.614 0 0 0-.22.469v3.354h-2.312c-.571-1.912-2.382-3.313-4.525-3.313-2.187 0-4.031 1.461-4.56 3.435a13.627 13.627 0 0 0-8.197 4.219C1.746 11.668.5 14.816.5 18.102c0 7.373 3.926 13.373 5.13 15.036.371.514.98.82 1.628.82H9.97c1.1 0 1.996-.873 1.996-1.946v-.86c.686.104 1.383.157 2.08.157h6.158v.703c0 1.073.895 1.946 1.996 1.946h2.978c.934 0 1.755-.647 1.95-1.538l.328-1.487c4.186-.994 7.552-3.857 9.209-7.573h2.52c.726 0 1.316-.576 1.316-1.284zM16.763 2.826c1.897 0 3.44 1.504 3.44 3.353 0 .473-.104.939-.3 1.366h-6.28a3.288 3.288 0 0 1-.3-1.366c0-1.85 1.544-3.353 3.44-3.353zm22.463 19.251a.042.042 0 0 1-.042.042h-2.042c.347-1.06.56-2.173.622-3.322a.627.627 0 0 0-.603-.652.631.631 0 0 0-.67.588c-.27 5.072-3.81 9.403-8.736 10.835l.89-4.048a.621.621 0 0 0-.49-.738.637.637 0 0 0-.756.477l-1.517 6.902a.722.722 0 0 1-.705.556h-2.979a.714.714 0 0 1-.721-.704v-2.65a.63.63 0 0 0-.637-.62.629.629 0 0 0-.637.62v.704h-6.157a12.7 12.7 0 0 1-2.081-.172v-4.506a.629.629 0 0 0-.637-.62.63.63 0 0 0-.637.62v6.624a.714.714 0 0 1-.722.704H7.26a.715.715 0 0 1-.588-.294c-1.15-1.588-4.897-7.312-4.897-14.32 0-2.977 1.128-5.83 3.176-8.032a12.337 12.337 0 0 1 7.102-3.776c.01.426.083.847.21 1.25h-.255a.63.63 0 0 0-.636.621.63.63 0 0 0 .636.621h9.512a.63.63 0 0 0 .637-.62.63.63 0 0 0-.637-.622h-.255c.14-.44.213-.9.213-1.366l-.001-.041H23.6v1.366a.63.63 0 0 0 .637.62.63.63 0 0 0 .637-.62V2.356c1.208.446 3.482 1.816 3.482 5.81a.63.63 0 0 0 .637.62.63.63 0 0 0 .637-.62c0-.264-.01-.542-.033-.829a12.317 12.317 0 0 1 4.024 3.054 11.842 11.842 0 0 1 2.64 5.307 1.317 1.317 0 0 0 1.288 1.038h1.635c.004 0 .017 0 .03.012a.039.039 0 0 1 .012.029v5.3z"/></clipPath><clipPath id="db0kc"><path fill="#fff" d="M27.94 17.1v-3.2h6.12v3.2zm5.728-1.201c-.395-1.034-1.442-1.729-2.604-1.729-1.162 0-2.208.695-2.604 1.729a.617.617 0 0 0 .375.799c.33.12.696-.044.819-.365.21-.55.777-.92 1.41-.92.633 0 1.2.37 1.41.92a.637.637 0 0 0 .82.365.617.617 0 0 0 .374-.8z"/></clipPath><clipPath id="db0kd"><path fill="#fff" d="M11.9 24.1V11.9h9.2v12.2zm5.5-9.638c1.25.148 2.124.713 2.124 1.225a.63.63 0 0 0 .637.621.63.63 0 0 0 .637-.62c0-1.27-1.448-2.291-3.397-2.476v-.071a.63.63 0 0 0-.637-.621.63.63 0 0 0-.637.621v.071c-1.949.185-3.397 1.206-3.397 2.475 0 1.814 1.837 2.468 3.397 2.896v3.173c-1.25-.148-2.123-.712-2.123-1.225a.63.63 0 0 0-.637-.62.63.63 0 0 0-.637.62c0 1.27 1.448 2.29 3.397 2.475v.071a.63.63 0 0 0 .637.621.63.63 0 0 0 .637-.62v-.072c1.949-.184 3.397-1.205 3.397-2.475 0-1.813-1.838-2.468-3.397-2.895zm-1.273 2.82c-1.569-.48-2.123-.915-2.123-1.595 0-.512.874-1.077 2.123-1.225zm1.274 1.654c1.569.48 2.123.916 2.123 1.595 0 .513-.874 1.077-2.123 1.225z"/></clipPath></defs><g><g><path fill="#fff" d="M20.837 24.77a.63.63 0 0 0-.637.621v1.325a.63.63 0 0 0 .637.62.63.63 0 0 0 .637-.62V25.39a.63.63 0 0 0-.637-.621z"/><path fill="none" stroke="#fff" stroke-miterlimit="50" stroke-width=".2" d="M20.837 24.77a.63.63 0 0 0-.637.621v1.325a.63.63 0 0 0 .637.62.63.63 0 0 0 .637-.62V25.39a.63.63 0 0 0-.637-.621z" clip-path="url(&quot;#db0ka&quot;)"/></g><g><path fill="#fff" d="M40.5 16.777v5.3c0 .707-.59 1.283-1.316 1.283h-2.52c-1.657 3.716-5.023 6.579-9.21 7.573l-.326 1.487c-.196.891-1.017 1.538-1.951 1.538h-2.978c-1.1 0-1.996-.873-1.996-1.946v-.703h-6.157c-.698 0-1.395-.053-2.081-.156v.86c0 1.072-.895 1.945-1.996 1.945H7.26a2.01 2.01 0 0 1-1.63-.82C4.427 31.475.5 25.475.5 18.102c0-3.285 1.245-6.434 3.506-8.866a13.627 13.627 0 0 1 8.197-4.22c.529-1.973 2.373-3.434 4.56-3.434 2.142 0 3.954 1.401 4.525 3.313H23.6V1.54c0-.18.08-.351.22-.47a.649.649 0 0 1 .507-.145c.055.008 1.373.2 2.681 1.203 1.351 1.035 2.037 2.413 2.361 3.748a13.605 13.605 0 0 1 5.225 3.713 13.074 13.074 0 0 1 2.915 5.86c.004.02.019.044.04.044h1.634c.352 0 .683.133.931.375.25.243.386.565.386.908zM13.324 6.178c0 .473.104.939.3 1.366h6.28c.195-.427.299-.893.299-1.366 0-1.849-1.543-3.353-3.44-3.353-1.896 0-3.44 1.504-3.44 3.353zm25.902 15.898v-5.3c0-.003 0-.016-.012-.028-.013-.012-.026-.012-.03-.012h-1.635c-.62 0-1.162-.437-1.288-1.038a11.842 11.842 0 0 0-2.64-5.307 12.317 12.317 0 0 0-4.024-3.054c.023.287.032.565.032.828a.63.63 0 0 1-.636.621.63.63 0 0 1-.637-.62c0-3.994-2.274-5.364-3.482-5.81v5.147a.63.63 0 0 1-.637.62.63.63 0 0 1-.637-.62V6.137h-2.125l.002.041c0 .465-.073.926-.213 1.366h.255a.63.63 0 0 1 .637.621.63.63 0 0 1-.637.621h-9.512a.63.63 0 0 1-.637-.62.63.63 0 0 1 .637-.622h.256a4.505 4.505 0 0 1-.211-1.25A12.337 12.337 0 0 0 4.95 10.07 11.771 11.771 0 0 0 1.774 18.1c0 7.009 3.748 12.733 4.897 14.32.135.188.35.295.587.295H9.97a.714.714 0 0 0 .722-.704v-6.624a.63.63 0 0 1 .637-.62c.352 0 .637.277.637.62v4.506a12.7 12.7 0 0 0 2.08.172h6.158v-.703c0-.343.285-.621.637-.621a.63.63 0 0 1 .637.62v2.65c0 .388.323.704.721.704h2.978a.722.722 0 0 0 .706-.556l1.517-6.902a.637.637 0 0 1 .756-.477.621.621 0 0 1 .49.738l-.89 4.048c4.926-1.432 8.467-5.763 8.737-10.835a.631.631 0 0 1 .669-.588c.351.018.621.31.603.652a12.849 12.849 0 0 1-.622 3.322h2.042a.042.042 0 0 0 .042-.042z"/><path fill="none" stroke="#fff" stroke-miterlimit="50" stroke-width=".2" d="M40.5 16.777v5.3c0 .707-.59 1.283-1.316 1.283h-2.52c-1.657 3.716-5.023 6.579-9.21 7.573l-.326 1.487c-.196.891-1.017 1.538-1.951 1.538h-2.978c-1.1 0-1.996-.873-1.996-1.946v-.703h-6.157c-.698 0-1.395-.053-2.081-.156v.86c0 1.072-.895 1.945-1.996 1.945H7.26a2.01 2.01 0 0 1-1.63-.82C4.427 31.475.5 25.475.5 18.102c0-3.285 1.245-6.434 3.506-8.866a13.627 13.627 0 0 1 8.197-4.22c.529-1.973 2.373-3.434 4.56-3.434 2.142 0 3.954 1.401 4.525 3.313H23.6V1.54c0-.18.08-.351.22-.47a.649.649 0 0 1 .507-.145c.055.008 1.373.2 2.681 1.203 1.351 1.035 2.037 2.413 2.361 3.748a13.605 13.605 0 0 1 5.225 3.713 13.074 13.074 0 0 1 2.915 5.86c.004.02.019.044.04.044h1.634s0 0 0 0c.352 0 .683.133.931.375.25.243.386.565.386.908zM13.324 6.178c0 .473.104.939.3 1.366h6.28c.195-.427.299-.893.299-1.366 0-1.849-1.543-3.353-3.44-3.353-1.896 0-3.44 1.504-3.44 3.353zm25.902 15.898v-5.3c0-.003 0-.016-.012-.028-.013-.012-.026-.012-.03-.012h-1.635c-.62 0-1.162-.437-1.288-1.038a11.842 11.842 0 0 0-2.64-5.307 12.317 12.317 0 0 0-4.024-3.054c.023.287.032.565.032.828a.63.63 0 0 1-.636.621.63.63 0 0 1-.637-.62c0-3.994-2.274-5.364-3.482-5.81v5.147a.63.63 0 0 1-.637.62.63.63 0 0 1-.637-.62V6.137h-2.125l.002.041c0 .465-.073.926-.213 1.366h.255a.63.63 0 0 1 .637.621.63.63 0 0 1-.637.621h-9.512a.63.63 0 0 1-.637-.62.63.63 0 0 1 .637-.622h.256a4.505 4.505 0 0 1-.211-1.25A12.337 12.337 0 0 0 4.95 10.07 11.771 11.771 0 0 0 1.774 18.1c0 7.009 3.748 12.733 4.897 14.32.135.188.35.295.587.295H9.97a.714.714 0 0 0 .722-.704v-6.624a.63.63 0 0 1 .637-.62c.352 0 .637.277.637.62v4.506a12.7 12.7 0 0 0 2.08.172h6.158v-.703c0-.343.285-.621.637-.621a.63.63 0 0 1 .637.62v2.65c0 .388.323.704.721.704h2.978a.722.722 0 0 0 .706-.556l1.517-6.902a.637.637 0 0 1 .756-.477.621.621 0 0 1 .49.738l-.89 4.048c4.926-1.432 8.467-5.763 8.737-10.835a.631.631 0 0 1 .669-.588c.351.018.621.31.603.652a12.849 12.849 0 0 1-.622 3.322h2.042a.042.042 0 0 0 .042-.042z" clip-path="url(&quot;#db0kb&quot;)"/></g><g><path fill="#fff" d="M33.668 15.899c-.395-1.034-1.442-1.729-2.604-1.729-1.162 0-2.208.695-2.604 1.729a.617.617 0 0 0 .375.799c.33.12.696-.044.819-.365.21-.55.777-.92 1.41-.92.633 0 1.2.37 1.41.92a.637.637 0 0 0 .82.365.617.617 0 0 0 .374-.8z"/><path fill="none" stroke="#fff" stroke-miterlimit="50" stroke-width=".2" d="M33.668 15.899c-.395-1.034-1.442-1.729-2.604-1.729-1.162 0-2.208.695-2.604 1.729a.617.617 0 0 0 .375.799c.33.12.696-.044.819-.365.21-.55.777-.92 1.41-.92.633 0 1.2.37 1.41.92a.637.637 0 0 0 .82.365.617.617 0 0 0 .374-.8z" clip-path="url(&quot;#db0kc&quot;)"/></g><g><path fill="#fff" d="M17.4 17.636c1.56.427 3.398 1.082 3.398 2.895 0 1.27-1.448 2.29-3.397 2.475v.071a.63.63 0 0 1-.637.621.63.63 0 0 1-.637-.62v-.072c-1.949-.184-3.397-1.205-3.397-2.475a.63.63 0 0 1 .637-.62.63.63 0 0 1 .637.62c0 .513.874 1.077 2.123 1.225v-3.173c-1.56-.428-3.397-1.082-3.397-2.896 0-1.27 1.448-2.29 3.397-2.475v-.071a.63.63 0 0 1 .637-.621.63.63 0 0 1 .637.621v.071c1.949.185 3.397 1.206 3.397 2.475a.63.63 0 0 1-.637.621.63.63 0 0 1-.637-.62c0-.513-.874-1.078-2.123-1.226zm-1.273-3.174c-1.25.148-2.123.713-2.123 1.225 0 .68.554 1.116 2.123 1.595zm1.274 7.294c1.25-.148 2.123-.712 2.123-1.225 0-.68-.554-1.115-2.123-1.595z"/><path fill="none" stroke="#fff" stroke-miterlimit="50" stroke-width=".2" d="M17.4 17.636c1.56.427 3.398 1.082 3.398 2.895 0 1.27-1.448 2.29-3.397 2.475v.071a.63.63 0 0 1-.637.621.63.63 0 0 1-.637-.62v-.072c-1.949-.184-3.397-1.205-3.397-2.475a.63.63 0 0 1 .637-.62.63.63 0 0 1 .637.62c0 .513.874 1.077 2.123 1.225v-3.173c-1.56-.428-3.397-1.082-3.397-2.896 0-1.27 1.448-2.29 3.397-2.475v-.071a.63.63 0 0 1 .637-.621.63.63 0 0 1 .637.621v.071c1.949.185 3.397 1.206 3.397 2.475a.63.63 0 0 1-.637.621.63.63 0 0 1-.637-.62c0-.513-.874-1.078-2.123-1.226zm-1.273-3.174c-1.25.148-2.123.713-2.123 1.225 0 .68.554 1.116 2.123 1.595zm1.274 7.294c1.25-.148 2.123-.712 2.123-1.225 0-.68-.554-1.115-2.123-1.595z" clip-path="url(&quot;#db0kd&quot;)"/></g></g></svg>