<svg xmlns="http://www.w3.org/2000/svg" width="42" height="44" viewBox="0 0 42 44"><defs><clipPath id="fj9ca"><path fill="#fff" d="M42.023 22.712a.644.644 0 1 1-1.29 0c0-9.647-7.046-17.728-16.506-19.088v1.292a.644.644 0 0 1-.645.644h-4.271a.644.644 0 0 1-.645-.644V3.624C9.206 4.984 2.16 13.065 2.16 22.712a.645.645 0 1 1-1.289 0 20.532 20.532 0 0 1 5.313-13.8 20.578 20.578 0 0 1 8.081-5.487H6.327a2.071 2.071 0 0 1-1.965 1.423A2.07 2.07 0 0 1 2.294 2.78 2.07 2.07 0 0 1 4.362.712c.915 0 1.693.598 1.965 1.424h12.34V.645c0-.357.288-.645.644-.645h4.271c.356 0 .645.288.645.645v1.49h12.34A2.071 2.071 0 0 1 38.53.712a2.07 2.07 0 0 1 2.068 2.068 2.07 2.07 0 0 1-2.068 2.068 2.071 2.071 0 0 1-1.965-1.424H28.63a20.583 20.583 0 0 1 8.08 5.488 20.533 20.533 0 0 1 5.314 13.8zM37.752 2.78a.78.78 0 1 0 1.56-.002.78.78 0 0 0-1.56.002zm-32.611 0a.78.78 0 1 0-1.56.002.78.78 0 0 0 1.56-.002zm17.797 1.491V1.289h-2.982v2.982z"/></clipPath><clipPath id="fj9cb"><path fill="#fff" d="M31.979 22.755a.643.643 0 0 1 .082.314v.712a.644.644 0 0 1-.1.345l-3.646 5.773H30.705a.645.645 0 1 1 0 1.29h-.068v2.202a.644.644 0 0 1-.644.645h-.78v2.203a.645.645 0 0 1-.644.644h-.78v6.474a.644.644 0 0 1-.644.645h-11.39a.644.644 0 0 1-.644-.645v-6.474h-.78a.645.645 0 0 1-.644-.644v-2.203h-.779a.644.644 0 0 1-.644-.645v-2.203h-.068a.645.645 0 0 1 0-1.289h2.39l-3.646-5.773a.644.644 0 0 1-.1-.345v-.712c0-.11.028-.218.082-.314l8.542-15.304a.645.645 0 0 1 .563-.331h2.847c.234 0 .45.127.563.33zm-11.308-.753a.78.78 0 1 0 1.56-.002.78.78 0 0 0-1.56.002zm7.253 12.034H14.976v1.558H18.1a.644.644 0 1 1 0 1.289H16.4v1.559h.78a.645.645 0 1 1 0 1.289h-.78v2.982h10.1V39.73h-.779a.645.645 0 0 1 0-1.289h.78v-1.558h-5.648a.645.645 0 1 1 0-1.29h7.071zm1.424-2.848H13.553v1.559h15.795zm1.424-7.951L22.496 8.409h-.4v11.628A2.071 2.071 0 0 1 23.518 22a2.07 2.07 0 0 1-2.069 2.069A2.07 2.07 0 0 1 19.382 22c0-.915.598-1.693 1.424-1.964V8.409h-.4l-8.277 14.828v.358l1.284 2.033h1.63a.644.644 0 1 1 0 1.29h-.816l1.884 2.981h4.695v-1.49a.645.645 0 0 1 1.289 0v1.49h4.695l1.883-2.982h-.816a.644.644 0 1 1 0-1.289h1.63l1.285-2.033z"/></clipPath></defs><g><g><path fill="#fff" d="M42.023 22.712a.644.644 0 1 1-1.29 0c0-9.647-7.046-17.728-16.506-19.088v1.292a.644.644 0 0 1-.645.644h-4.271a.644.644 0 0 1-.645-.644V3.624C9.206 4.984 2.16 13.065 2.16 22.712a.645.645 0 1 1-1.289 0 20.532 20.532 0 0 1 5.313-13.8 20.578 20.578 0 0 1 8.081-5.487H6.327a2.071 2.071 0 0 1-1.965 1.423A2.07 2.07 0 0 1 2.294 2.78 2.07 2.07 0 0 1 4.362.712c.915 0 1.693.598 1.965 1.424h12.34V.645c0-.357.288-.645.644-.645h4.271c.356 0 .645.288.645.645v1.49h12.34A2.071 2.071 0 0 1 38.53.712a2.07 2.07 0 0 1 2.068 2.068 2.07 2.07 0 0 1-2.068 2.068 2.071 2.071 0 0 1-1.965-1.424H28.63a20.583 20.583 0 0 1 8.08 5.488 20.533 20.533 0 0 1 5.314 13.8zM37.752 2.78a.78.78 0 1 0 1.56-.002.78.78 0 0 0-1.56.002zm-32.611 0a.78.78 0 1 0-1.56.002.78.78 0 0 0 1.56-.002zm17.797 1.491V1.289h-2.982v2.982z"/><path fill="none" stroke="#fff" stroke-miterlimit="50" stroke-width="2" d="M42.023 22.712a.644.644 0 1 1-1.29 0c0-9.647-7.046-17.728-16.506-19.088v1.292a.644.644 0 0 1-.645.644h-4.271a.644.644 0 0 1-.645-.644V3.624C9.206 4.984 2.16 13.065 2.16 22.712a.645.645 0 1 1-1.289 0 20.532 20.532 0 0 1 5.313-13.8 20.578 20.578 0 0 1 8.081-5.487H6.327a2.071 2.071 0 0 1-1.965 1.423A2.07 2.07 0 0 1 2.294 2.78 2.07 2.07 0 0 1 4.362.712c.915 0 1.693.598 1.965 1.424h12.34V.645c0-.357.288-.645.644-.645h4.271c.356 0 .645.288.645.645v1.49h12.34A2.071 2.071 0 0 1 38.53.712a2.07 2.07 0 0 1 2.068 2.068 2.07 2.07 0 0 1-2.068 2.068 2.071 2.071 0 0 1-1.965-1.424H28.63a20.583 20.583 0 0 1 8.08 5.488 20.533 20.533 0 0 1 5.314 13.8zM37.752 2.78a.78.78 0 1 0 1.56-.002.78.78 0 0 0-1.56.002zm-32.611 0a.78.78 0 1 0-1.56.002.78.78 0 0 0 1.56-.002zm17.797 1.491V1.289h-2.982v2.982z" clip-path="url(&quot;#fj9ca&quot;)"/></g><g><path fill="#fff" d="M31.979 22.755a.643.643 0 0 1 .082.314v.712a.644.644 0 0 1-.1.345l-3.646 5.773H30.705a.645.645 0 1 1 0 1.29h-.068v2.202a.644.644 0 0 1-.644.645h-.78v2.203a.645.645 0 0 1-.644.644h-.78v6.474a.644.644 0 0 1-.644.645h-11.39a.644.644 0 0 1-.644-.645v-6.474h-.78a.645.645 0 0 1-.644-.644v-2.203h-.779a.644.644 0 0 1-.644-.645v-2.203h-.068a.645.645 0 0 1 0-1.289h2.39l-3.646-5.773a.644.644 0 0 1-.1-.345v-.712c0-.11.028-.218.082-.314l8.542-15.304a.645.645 0 0 1 .563-.331h2.847c.234 0 .45.127.563.33zm-11.308-.753a.78.78 0 1 0 1.56-.002.78.78 0 0 0-1.56.002zm7.253 12.034H14.976v1.558H18.1a.644.644 0 1 1 0 1.289H16.4v1.559h.78a.645.645 0 1 1 0 1.289h-.78v2.982h10.1V39.73h-.779a.645.645 0 0 1 0-1.289h.78v-1.558h-5.648a.645.645 0 1 1 0-1.29h7.071zm1.424-2.848H13.553v1.559h15.795zm1.424-7.951L22.496 8.409h-.4v11.628A2.071 2.071 0 0 1 23.518 22a2.07 2.07 0 0 1-2.069 2.069A2.07 2.07 0 0 1 19.382 22c0-.915.598-1.693 1.424-1.964V8.409h-.4l-8.277 14.828v.358l1.284 2.033h1.63a.644.644 0 1 1 0 1.29h-.816l1.884 2.981h4.695v-1.49a.645.645 0 0 1 1.289 0v1.49h4.695l1.883-2.982h-.816a.644.644 0 1 1 0-1.289h1.63l1.285-2.033z"/><path fill="none" stroke="#fff" stroke-miterlimit="50" stroke-width="2" d="M31.979 22.755a.643.643 0 0 1 .082.314v.712a.644.644 0 0 1-.1.345l-3.646 5.773H30.705a.645.645 0 1 1 0 1.29h-.068v2.202a.644.644 0 0 1-.644.645h-.78v2.203a.645.645 0 0 1-.644.644h-.78v6.474a.644.644 0 0 1-.644.645h-11.39a.644.644 0 0 1-.644-.645v-6.474h-.78a.645.645 0 0 1-.644-.644v-2.203h-.779a.644.644 0 0 1-.644-.645v-2.203h-.068a.645.645 0 0 1 0-1.289h2.39l-3.646-5.773a.644.644 0 0 1-.1-.345v-.712c0-.11.028-.218.082-.314l8.542-15.304a.645.645 0 0 1 .563-.331h2.847c.234 0 .45.127.563.33zm-11.308-.753a.78.78 0 1 0 1.56-.002.78.78 0 0 0-1.56.002zm7.253 12.034H14.976v1.558H18.1a.644.644 0 1 1 0 1.289H16.4v1.559h.78a.645.645 0 1 1 0 1.289h-.78v2.982h10.1V39.73h-.779a.645.645 0 0 1 0-1.289h.78v-1.558h-5.648a.645.645 0 1 1 0-1.29h7.071zm1.424-2.848H13.553v1.559h15.795zm1.424-7.951L22.496 8.409h-.4v11.628A2.071 2.071 0 0 1 23.518 22a2.07 2.07 0 0 1-2.069 2.069A2.07 2.07 0 0 1 19.382 22c0-.915.598-1.693 1.424-1.964V8.409h-.4l-8.277 14.828v.358l1.284 2.033h1.63a.644.644 0 1 1 0 1.29h-.816l1.884 2.981h4.695v-1.49a.645.645 0 0 1 1.289 0v1.49h4.695l1.883-2.982h-.816a.644.644 0 1 1 0-1.289h1.63l1.285-2.033z" clip-path="url(&quot;#fj9cb&quot;)"/></g></g></svg>