<svg xmlns="http://www.w3.org/2000/svg" width="33" height="33" viewBox="0 0 33 33"><defs><clipPath id="53f1a"><path fill="#fff" d="M-1.156 30.061V17.003h8.312v13.058zm0-27.122h8.312v13.275h-8.312zM-6.8 19.4a.395.395 0 0 0 .559-.558l-1.84-1.84h6.926v-.79h-6.926l1.84-1.839a.395.395 0 0 0-.559-.558l-2.513 2.513a.395.395 0 0 0 0 .559l2.513 2.513zm22.78-2.398v-.79H7.156v.79z"/></clipPath><clipPath id="53f1b"><path fill="#fff" d="M1.933 33.062v-7.124h27.134v7.124zm23.846-6.546a.399.399 0 0 0-.562 0 .394.394 0 0 0 0 .558l1.849 1.84H2.88v.79h24.186l-1.849 1.839a.394.394 0 0 0 0 .558.399.399 0 0 0 .562 0l2.526-2.513a.393.393 0 0 0 0-.559l-2.526-2.513z"/></clipPath></defs><g><g><path fill="#fff" d="M3.25 1.252A.39.39 0 0 1 3.648.87h28.663a.39.39 0 0 1 .398.382v27.622a.39.39 0 0 1-.398.382.39.39 0 0 1-.398-.382V1.634H3.648a.39.39 0 0 1-.398-.382z"/><path fill="none" stroke="#fff" stroke-miterlimit="50" stroke-width=".5" d="M3.25 1.252A.39.39 0 0 1 3.648.87h28.663a.39.39 0 0 1 .398.382v27.622a.39.39 0 0 1-.398.382.39.39 0 0 1-.398-.382V1.634v0H3.648a.39.39 0 0 1-.398-.382z"/></g><g><g transform="rotate(90 3 16.5)"><path fill="#fff" d="M-6.8 19.401l-2.514-2.513a.395.395 0 0 1 0-.559l2.513-2.513a.395.395 0 0 1 .559.558l-1.84 1.84H15.98v.79h-24.06l1.839 1.839a.395.395 0 0 1-.559.558z"/><path fill="none" stroke="#fff" stroke-miterlimit="50" stroke-width=".5" d="M-6.8 19.401v0l-2.514-2.513a.395.395 0 0 1 0-.559l2.513-2.513a.395.395 0 0 1 .559.558l-1.84 1.84v0H15.98v.79h-24.06v0l1.839 1.839a.395.395 0 0 1-.559.558z" clip-path="url(&quot;#53f1a&quot;)"/></g><g><path fill="#fff" d="M25.779 26.516l2.526 2.513a.393.393 0 0 1 0 .559L25.78 32.1a.399.399 0 0 1-.562 0 .394.394 0 0 1 0-.558l1.849-1.84H2.88v-.79h24.186l-1.849-1.839a.394.394 0 0 1 0-.558.399.399 0 0 1 .562 0z"/><path fill="none" stroke="#fff" stroke-miterlimit="50" stroke-width=".5" d="M25.779 26.516v0l2.526 2.513a.393.393 0 0 1 0 .559L25.78 32.1a.399.399 0 0 1-.562 0 .394.394 0 0 1 0-.558l1.849-1.84v0H2.88v0-.79 0h24.186v0l-1.849-1.839a.394.394 0 0 1 0-.558.399.399 0 0 1 .562 0z" clip-path="url(&quot;#53f1b&quot;)"/></g></g><g><path fill="#fff" d="M14.164.986a.395.395 0 0 1 0 .558l-4.74 4.74a.395.395 0 0 1-.558-.559l4.74-4.74a.395.395 0 0 1 .558 0z"/><path fill="none" stroke="#fff" stroke-miterlimit="50" stroke-width=".5" d="M14.164.986a.395.395 0 0 1 0 .558l-4.74 4.74a.395.395 0 0 1-.558-.559l4.74-4.74a.395.395 0 0 1 .558 0z"/></g><g><path fill="#fff" d="M32.459 19.816a.395.395 0 0 1 0 .558l-4.345 4.345a.395.395 0 0 1-.558-.559l4.344-4.344a.395.395 0 0 1 .559 0z"/><path fill="none" stroke="#fff" stroke-miterlimit="50" stroke-width=".5" d="M32.459 19.816a.395.395 0 0 1 0 .558l-4.345 4.345a.395.395 0 0 1-.558-.559l4.344-4.344a.395.395 0 0 1 .559 0z"/></g><g><path fill="#fff" d="M20.081.984a.395.395 0 0 1 .004.558L9.816 11.943a.395.395 0 0 1-.562-.555L19.523.988a.395.395 0 0 1 .558-.004z"/><path fill="none" stroke="#fff" stroke-miterlimit="50" stroke-width=".5" d="M20.081.984a.395.395 0 0 1 .004.558L9.816 11.943a.395.395 0 0 1-.562-.555L19.523.988a.395.395 0 0 1 .558-.004z"/></g><g><path fill="#fff" d="M32.59 13.236a.395.395 0 0 1 0 .558L22.584 23.8a.395.395 0 1 1-.558-.559L32.03 13.236a.395.395 0 0 1 .559 0z"/><path fill="none" stroke="#fff" stroke-miterlimit="50" stroke-width=".5" d="M32.59 13.236a.395.395 0 0 1 0 .558L22.584 23.8a.395.395 0 1 1-.558-.559L32.03 13.236a.395.395 0 0 1 .559 0z"/></g><g><path fill="#fff" d="M26.413 1.118a.395.395 0 0 1-.004.558L9.951 17.87a.395.395 0 1 1-.554-.563L25.854 1.113a.395.395 0 0 1 .559.005z"/><path fill="none" stroke="#fff" stroke-miterlimit="50" stroke-width=".5" d="M26.413 1.118a.395.395 0 0 1-.004.558L9.951 17.87a.395.395 0 1 1-.554-.563L25.854 1.113a.395.395 0 0 1 .559.005z"/></g><g><path fill="#fff" d="M32.593 7.046a.395.395 0 0 1 0 .558L16.004 24.193a.395.395 0 0 1-.558-.56L32.034 7.047a.395.395 0 0 1 .559 0z"/><path fill="none" stroke="#fff" stroke-miterlimit="50" stroke-width=".5" d="M32.593 7.046a.395.395 0 0 1 0 .558L16.004 24.193a.395.395 0 0 1-.558-.56L32.034 7.047a.395.395 0 0 1 .559 0z"/></g><g><path fill="#fff" d="M32.328 1.116a.395.395 0 0 1 0 .558L9.684 24.318a.395.395 0 0 1-.558-.558L31.77 1.116a.395.395 0 0 1 .559 0z"/><path fill="none" stroke="#fff" stroke-miterlimit="50" stroke-width=".5" d="M32.328 1.116a.395.395 0 0 1 0 .558L9.684 24.318a.395.395 0 0 1-.558-.558L31.77 1.116a.395.395 0 0 1 .559 0z"/></g></g></svg>