<svg xmlns="http://www.w3.org/2000/svg" width="114" height="29" viewBox="0 0 114 29"><g><g><g><path fill="#e3b873" d="M0 14.642c0-.427.345-.772.772-.772h30.456a.772.772 0 1 1 0 1.543H.772A.772.772 0 0 1 0 14.642z"/></g><g><path fill="#e3b873" d="M82 14.642c0-.427.345-.772.772-.772h30.456a.772.772 0 1 1 0 1.543H82.772a.772.772 0 0 1-.772-.771z"/></g><g><g><g><path fill="#e3b873" d="M73.862 4.945v14.044l-2.375 1.583-2.063-3.938-3.413 1.707-.63-1.261-.78.78c.01.076.023.152.023.23 0 .914-.73 1.657-1.636 1.69a1.692 1.692 0 0 1-1.63 1.63 1.692 1.692 0 0 1-1.63 1.63 1.695 1.695 0 0 1-2.89 1.14l-.365-.366-.909.909a1.707 1.707 0 0 1-1.199.496c-.914 0-1.657-.729-1.69-1.636a1.692 1.692 0 0 1-1.63-1.63 1.692 1.692 0 0 1-1.63-1.63 1.695 1.695 0 0 1-1.14-2.89l.909-.908-.974-.974-.672 1.68-2.593-1.037-1.775 4.34-2.998-1.5L40.14 4.36l10.444 3.47h5.889v.013c.37-.014.744.025 1.108.133l4.845 1.454zM47.185 7.846L41.23 5.867l.027 12.495 1.35.675zm2.591.862l-1.558-.518-2.862 6.998 1.576.63zm-.301 10.534c.16 0 .317-.065.43-.178l.956-.956a.61.61 0 0 0-.862-.862l-.956.956a.61.61 0 0 0 .431 1.04zm1.63 1.63c.16 0 .317-.064.43-.178l.956-.955a.61.61 0 0 0-.862-.862l-.955.955a.61.61 0 0 0 .431 1.04zm1.63 1.63c.16 0 .317-.064.43-.178l.956-.955a.61.61 0 0 0-.862-.862l-.955.955a.61.61 0 0 0 .431 1.04zm3.016.497a.61.61 0 0 0-.862-.862l-.955.955a.61.61 0 0 0 .862.862zm7.786-4.91a.614.614 0 0 0-.178-.43L59.7 13.972a6.136 6.136 0 0 1-1.393-.961l-1.27-1.165a.836.836 0 0 0-1.12.024l-1.44 1.44a1.698 1.698 0 0 1-2.398-2.398l1.994-1.996h-3.21l-2.215 5.536 1.551 1.551c.076-.01.153-.022.23-.022.914 0 1.657.729 1.69 1.636a1.693 1.693 0 0 1 1.63 1.63 1.693 1.693 0 0 1 1.63 1.63 1.695 1.695 0 0 1 1.636 1.69c0 .078-.012.154-.022.23l.613.613a.61.61 0 0 0 .862-.862l-4.554-4.553.769-.768 4.553 4.553a.61.61 0 0 0 .862-.862l-4.554-4.553.769-.769 4.553 4.554a.61.61 0 0 0 .862-.862l-4.553-4.554.768-.768 4.553 4.553a.61.61 0 0 0 1.04-.43zm1.33-2.033l-2.798-5.599-4.8-1.44a2.38 2.38 0 0 0-2.35.593l-2.072 2.071a.61.61 0 0 0 .863.862l1.44-1.44c.688-.689 1.904-.715 2.622-.057l1.27 1.164a5.031 5.031 0 0 0 3.408 1.326v1.087c-.202 0-.404-.011-.603-.03l2.233 2.25zm4.053-.385l-3.311-6.322-2.407.944 3.295 6.59zm3.855-9.133L66.626 8.95l5.263 10.049.886-.591z"/></g></g><g><path fill="#e3b873" d="M60.151 1.576a.486.486 0 1 1-.971 0 .486.486 0 0 1 .971 0z"/></g><g><path fill="#e3b873" d="M47.891 24.506a.486.486 0 1 1-.971 0 .486.486 0 0 1 .971 0z"/></g><g><path fill="#e3b873" d="M49.951 26.196a.486.486 0 1 1-.971 0 .486.486 0 0 1 .971 0z"/></g><g><path fill="#e3b873" d="M52.301 27.426a.486.486 0 1 1-.971 0 .486.486 0 0 1 .971 0z"/></g><g><path fill="#e3b873" d="M54.851 28.226a.486.486 0 1 1-.971 0 .486.486 0 0 1 .971 0z"/></g><g><path fill="#e3b873" d="M62.701 2.346a.486.486 0 1 1-.971 0 .486.486 0 0 1 .971 0z"/></g><g><path fill="#e3b873" d="M65.051 3.606a.486.486 0 1 1-.971 0 .486.486 0 0 1 .971 0z"/></g><g/><g/><g/><g transform="rotate(172.43 62.5 25.5)"/></g></g></g></svg>