<svg xmlns="http://www.w3.org/2000/svg" width="34" height="33" viewBox="0 0 34 33"><g><g><g><path fill="#fff" d="M33.131 3.07v29.145H.35V3.07h8.535c.263-1.254 1.404-2.2 2.769-2.2 1.558 0 2.826 1.233 2.826 2.75 0 1.516-1.268 2.75-2.826 2.75a.558.558 0 0 1-.565-.55c0-.305.253-.55.565-.55.935 0 1.695-.74 1.695-1.65 0-.91-.76-1.65-1.695-1.65a1.69 1.69 0 0 0-1.592 1.1h1.027c.312 0 .565.245.565.55 0 .304-.253.55-.565.55H1.48v4.949H32v-4.95h-7.404c-.263 1.254-1.404 2.2-2.769 2.2a.558.558 0 0 1-.565-.55c0-.304.253-.55.565-.55.935 0 1.696-.74 1.696-1.65 0-.909-.76-1.65-1.696-1.65a.558.558 0 0 1-.565-.55c0-.303.253-.549.565-.549 1.365 0 2.506.946 2.77 2.2zm-1.13 7.149H1.48v20.896H32z"/></g><g><path fill="#fff" d="M15.045 1.97c.935 0 1.696.74 1.696 1.65 0 .91-.761 1.65-1.696 1.65a.558.558 0 0 0-.565.55c0 .303.253.55.565.55 1.558 0 2.826-1.234 2.826-2.75 0-1.517-1.268-2.75-2.826-2.75a.558.558 0 0 0-.565.55c0 .304.253.55.565.55z"/></g><g><path fill="#fff" d="M18.445 1.97c.935 0 1.696.74 1.696 1.65 0 .91-.761 1.65-1.696 1.65a.558.558 0 0 0-.565.55c0 .303.253.55.565.55 1.558 0 2.826-1.234 2.826-2.75 0-1.517-1.268-2.75-2.826-2.75a.558.558 0 0 0-.565.55c0 .304.253.55.565.55z"/></g><g><path fill="#fff" d="M5.445 14.62H17.88a.558.558 0 0 0 .566-.55.558.558 0 0 0-.566-.55H5.445a.558.558 0 0 0-.565.55c0 .304.253.55.565.55z"/></g><g><path fill="#fff" d="M28.053 22.32h-8.478a.558.558 0 0 0-.565.55c0 .304.253.55.565.55h8.478a.558.558 0 0 0 .565-.55.558.558 0 0 0-.565-.55z"/></g><g><path fill="#fff" d="M5.445 19.02h5.652a.558.558 0 0 0 .565-.55.558.558 0 0 0-.565-.55H5.445a.558.558 0 0 0-.565.55c0 .304.253.55.565.55z"/></g><g><path fill="#fff" d="M28.047 26.72h-5.652a.558.558 0 0 0-.565.55c0 .304.253.55.565.55h5.652a.558.558 0 0 0 .565-.55.558.558 0 0 0-.565-.55z"/></g><g><path fill="#fff" d="M16.18 18.47c0 .304.253.55.565.55h8.478a.558.558 0 0 0 .565-.55.558.558 0 0 0-.565-.55h-8.478a.558.558 0 0 0-.565.55z"/></g><g><path fill="#fff" d="M14.316 18.863a.57.57 0 0 0 .164-.39.568.568 0 0 0-.164-.39.604.604 0 0 0-.802 0 .568.568 0 0 0-.164.39.57.57 0 0 0 .164.39.58.58 0 0 0 .401.16.58.58 0 0 0 .401-.16z"/></g><g><path fill="#fff" d="M7.7 22.87c0 .304.253.55.565.55h8.478a.558.558 0 0 0 .565-.55.558.558 0 0 0-.565-.55H8.265a.558.558 0 0 0-.565.55z"/></g><g><path fill="#fff" d="M5.445 23.422c.147 0 .294-.06.401-.16a.57.57 0 0 0 .164-.39.545.545 0 0 0-.164-.385.598.598 0 0 0-.802-.005.568.568 0 0 0-.164.39.57.57 0 0 0 .164.39c.107.1.249.16.401.16z"/></g><g><path fill="#fff" d="M28.045 19.023a.58.58 0 0 0 .401-.16.546.546 0 0 0 0-.78.604.604 0 0 0-.802 0 .568.568 0 0 0-.164.39.57.57 0 0 0 .164.39.58.58 0 0 0 .401.16z"/></g><g><path fill="#fff" d="M19.575 26.72H5.445a.558.558 0 0 0-.565.55c0 .304.253.55.565.55h14.13a.558.558 0 0 0 .565-.55.558.558 0 0 0-.565-.55z"/></g></g></g></svg>