<svg xmlns="http://www.w3.org/2000/svg" width="114" height="29" viewBox="0 0 114 29"><g><g><path fill="#e3b873" d="M0 14.242c0-.427.345-.772.772-.772h30.456a.772.772 0 1 1 0 1.543H.772A.772.772 0 0 1 0 14.242z"/></g><g><path fill="#e3b873" d="M82 14.242c0-.427.345-.772.772-.772h30.456a.772.772 0 1 1 0 1.543H82.772a.772.772 0 0 1-.772-.771z"/></g><g><g/><g><path fill="#e3b873" d="M53.23 6.084a3.278 3.278 0 0 1 3.274-3.274 3.278 3.278 0 0 1 3.274 3.274 3.278 3.278 0 0 1-3.274 3.274 3.278 3.278 0 0 1-3.274-3.274zm.935 0c0 1.13.806 2.074 1.871 2.292V6.552h.936v1.824a2.343 2.343 0 0 0 1.87-2.292c0-1.29-1.048-2.339-2.338-2.339a2.341 2.341 0 0 0-2.339 2.34z"/></g><g><path fill="#e3b873" d="M56.03 5.148a.468.468 0 1 1 .935 0 .468.468 0 0 1-.935 0z"/></g><g/><g><path fill="#e3b873" d="M69.168 22.137A2.324 2.324 0 0 1 71 24.42V29H42v-4.58c0-1.104.753-2.043 1.832-2.283l2.378-.529v-.683a3.27 3.27 0 0 1-1.404-2.683v-.936a3.276 3.276 0 0 1 2.807-3.236v-2.225l4.322-1.73-.668-.667.668-1.002a5.134 5.134 0 0 1-.335-.81L50.42 7.4V4.762l1.18-.237c.089-.28.201-.55.336-.81l-.668-1.002L53.133.848l1.002.668c.26-.134.53-.247.81-.335L55.18 0h2.638l.237 1.181c.28.088.55.2.81.336l1.002-.669 1.865 1.865-.668 1.002c.134.26.247.53.335.81l1.18.237V7.4l-1.18.236c-.089.28-.201.55-.336.81l.668 1.002-.667.668 4.322 1.73v2.224a3.276 3.276 0 0 1 2.807 3.237v.935a3.27 3.27 0 0 1-1.404 2.683v.684zm-3.313-.759a3.255 3.255 0 0 1-1.871 0v.477c.116.179.438.597.935.597.498 0 .82-.418.936-.597zm1.403-4.072c0-1.289-1.05-2.338-2.339-2.338a2.342 2.342 0 0 0-2.338 2.339v.935c0 1.29 1.049 2.339 2.338 2.339 1.29 0 2.34-1.05 2.34-2.34zm-6.913-6.47l-.478.477-1.002-.668a5.12 5.12 0 0 1-.81.336l-.236 1.18h-.851v1.909a3.276 3.276 0 0 1 2.806 3.236v.936a3.27 3.27 0 0 1-1.403 2.683v.683l2.339.52 2.338-.52v-.683a3.27 3.27 0 0 1-1.403-2.683v-.935a3.276 3.276 0 0 1 2.807-3.237v-1.592zm1.3 13.584c0-.663-.452-1.226-1.099-1.37l-2.428-.54c-.268.354-.8.877-1.618.877-.818 0-1.35-.523-1.617-.877l-2.43.54a1.395 1.395 0 0 0-1.098 1.37v3.644h10.29zm-7.484-7.114v.936c0 1.29 1.05 2.339 2.339 2.339 1.29 0 2.339-1.05 2.339-2.34v-.934c0-1.29-1.05-2.34-2.339-2.34a2.342 2.342 0 0 0-2.339 2.34zm1.404 4.073v.476c.116.179.438.597.935.597.497 0 .82-.418.935-.597v-.477a3.256 3.256 0 0 1-1.87 0zM52.352 6.833l.073.285c.1.392.255.766.46 1.11l.151.254-.565.847.781.78.847-.564.253.151c.345.206.719.36 1.111.46l.285.073.2.997h1.104l.2-.998.285-.072a4.17 4.17 0 0 0 1.111-.46l.254-.151.846.564.781-.78-.564-.847.15-.254c.206-.345.36-.718.46-1.11l.073-.286.997-.2V5.53l-.997-.2-.073-.286a4.17 4.17 0 0 0-.46-1.11l-.151-.254.565-.847-.781-.78-.847.564-.253-.151a4.187 4.187 0 0 0-1.111-.46l-.285-.072-.2-.998h-1.104l-.2.998-.285.073a4.17 4.17 0 0 0-1.111.46l-.254.15-.846-.564-.781.78.564.847-.15.254c-.206.345-.36.719-.46 1.11l-.073.286-.997.2v1.104zm-3.804 5.645v1.592a3.276 3.276 0 0 1 2.807 3.237v.935a3.27 3.27 0 0 1-1.403 2.683v.683l2.338.52 2.339-.52v-.683a3.27 3.27 0 0 1-1.403-2.683v-.935a3.276 3.276 0 0 1 2.806-3.237V12.16h-.85l-.237-1.18c-.28-.09-.55-.202-.81-.336l-1.002.668-.478-.478zm-2.806 5.764c0 1.29 1.05 2.339 2.339 2.339 1.29 0 2.338-1.05 2.338-2.34v-.934c0-1.29-1.049-2.34-2.338-2.34a2.342 2.342 0 0 0-2.34 2.34zm1.403 3.136v.477c.115.177.438.597.936.597.497 0 .82-.418.935-.597v-.477a3.256 3.256 0 0 1-1.87 0zm-4.21 6.686h7.484V24.42c0-.621.244-1.185.645-1.606l-1.366-.304c-.267.354-.8.877-1.617.877-.818 0-1.35-.523-1.618-.877l-2.429.54a1.395 1.395 0 0 0-1.099 1.37zm27.13-3.644c0-.663-.452-1.226-1.1-1.37l-2.428-.54c-.268.354-.8.877-1.618.877-.818 0-1.35-.523-1.617-.877l-1.366.304c.4.421.645.985.645 1.606v3.644h7.483z"/></g></g></g></svg>