<svg width="14" height="15" viewBox="0 0 14 15" fill="none" xmlns="http://www.w3.org/2000/svg">
<path d="M10 1.39941H4.00001C2.34316 1.39941 1.00001 2.74256 1.00001 4.39941V10.3994C1.00001 12.0563 2.34316 13.3994 4.00001 13.3994H10C11.6569 13.3994 13 12.0563 13 10.3994V4.39941C13 2.74256 11.6569 1.39941 10 1.39941Z" stroke="white" stroke-width="1.5"/>
<path d="M9.40003 7.02159C9.47408 7.52094 9.38879 8.03092 9.15629 8.479C8.92379 8.92708 8.55592 9.29044 8.10501 9.5174C7.6541 9.74436 7.1431 9.82335 6.6447 9.74315C6.14631 9.66296 5.68589 9.42764 5.32894 9.07069C4.97198 8.71374 4.73667 8.25332 4.65647 7.75492C4.57627 7.25653 4.65527 6.74553 4.88223 6.29462C5.10919 5.84371 5.47254 5.47584 5.92062 5.24334C6.3687 5.01084 6.87869 4.92555 7.37803 4.99959C7.88739 5.07513 8.35894 5.31247 8.72305 5.67658C9.08715 6.04068 9.3245 6.51224 9.40003 7.02159Z" stroke="white" stroke-width="1.5" stroke-linecap="round" stroke-linejoin="round"/>
</svg>
