<svg xmlns="http://www.w3.org/2000/svg" width="114" height="29" viewBox="0 0 114 29"><g><g><g><path fill="#e3b873" d="M0 13.982c0-.427.345-.772.772-.772h30.456a.772.772 0 1 1 0 1.543H.772A.772.772 0 0 1 0 13.982z"/></g><g><path fill="#e3b873" d="M82 13.982c0-.427.345-.772.772-.772h30.456a.772.772 0 1 1 0 1.543H82.772a.772.772 0 0 1-.772-.771z"/></g></g><g><g><path fill="#e3b873" d="M67.503 22.05c.747.747.747 1.913 0 2.613-.373.374-.84.56-1.306.56-.467 0-.934-.186-1.307-.56-.747-.746-.747-1.913 0-2.613.747-.747 1.913-.747 2.613 0zm-.653.7a.921.921 0 0 0-.653-.28.921.921 0 0 0-.654.28.902.902 0 0 0 0 1.307.902.902 0 0 0 1.307 0 .902.902 0 0 0 0-1.307z"/></g><g><path fill="#e3b873" d="M70.683 22.61c.42.42.42 1.12 0 1.54l-3.733 3.733c-.187.234-.467.327-.747.327-.28 0-.56-.093-.793-.327l-7.793-7.793-.607-.607-7.607 7.607c-.046.093-.186.14-.326.14a.477.477 0 0 1-.123-.015l-5.384.995h-.093a.423.423 0 0 1-.327-.14c-.093-.093-.14-.233-.14-.42l.98-5.6c.04-.161.116-.287.255-.349l7.492-7.491-2.054-2.053-2.613-2.614-3.64-3.64c-.56-.56-.56-1.446 0-1.96L46.743.63c.514-.513 1.447-.513 1.96 0l8.307 8.307 3.313-3.314 1.96-1.96L65.13.817A2.048 2.048 0 0 1 66.577.21c.56 0 1.073.233 1.446.607l2.38 2.38c.794.793.794 2.1 0 2.893l-2.846 2.847-1.96 1.96-3.314 3.313zM64.57 10.57l-1.61-1.61-15.516 15.47 1.633 1.633zm-1.307-6.58l3.967 3.967 2.52-2.52c.42-.42.42-1.167 0-1.587l-2.38-2.38c-.42-.42-1.167-.42-1.587 0zm-1.96 1.96l3.967 3.967 1.307-1.307-1.984-1.983-1.983-1.984zm-8.913 7.607l3.967-3.967-8.307-8.307a.504.504 0 0 0-.327-.14.424.424 0 0 0-.326.14l-3.314 3.314a.451.451 0 0 0 0 .653l.654.653L46.37 4.27a.451.451 0 0 1 .653 0 .451.451 0 0 1 0 .653L45.39 6.557l.653.653.98-.98a.451.451 0 0 1 .654 0 .451.451 0 0 1 0 .653l-.98.98.7.7L49.03 6.93a.451.451 0 0 1 .653 0 .451.451 0 0 1 0 .653L48.05 9.217l.653.653.98-.98a.451.451 0 0 1 .654 0 .451.451 0 0 1 0 .653l-.98.98.653.654 1.633-1.634a.451.451 0 0 1 .654 0 .451.451 0 0 1 0 .654l-1.634 1.633.677.677 1.003-1.004a.451.451 0 0 1 .654 0 .451.451 0 0 1 0 .654l-1.004 1.003zm-7.233 8.586l1.61 1.61 15.516-15.47L60.65 6.65zm-1.074 4.994l4.02-.693-1.686-1.687a.485.485 0 0 1-.103-.15l-1.53-1.53zm25.947-3.64c.047-.047.047-.187 0-.234l-8.4-8.4-3.967 3.967.28.28 1.634-1.633a.451.451 0 0 1 .653 0 .451.451 0 0 1 0 .653l-1.633 1.633.653.654.98-.98a.451.451 0 0 1 .653 0 .451.451 0 0 1 0 .653l-.98.98.677.677 1.657-1.657a.451.451 0 0 1 .653 0 .451.451 0 0 1 0 .653L61.233 22.4l4.83 4.83c.047.047.187.047.234 0z"/></g></g></g></svg>